<?xml version="1.0" encoding="UTF-8" standalone="no"?>
<!DOCTYPE svg PUBLIC "-//W3C//DTD SVG 1.1//EN" "http://www.w3.org/Graphics/SVG/1.1/DTD/svg11.dtd">
<svg width="100%" height="100%" viewBox="0 0 1920 1080" version="1.1" xmlns="http://www.w3.org/2000/svg" xmlns:xlink="http://www.w3.org/1999/xlink" xml:space="preserve" xmlns:serif="http://www.serif.com/" style="fill-rule:evenodd;clip-rule:evenodd;stroke-linecap:round;stroke-linejoin:round;stroke-miterlimit:1.5;">
    <g transform="matrix(1,0,0,1,81.6486,-155.761)">
        <clipPath id="_clip1">
            <rect x="564.004" y="214.661" width="646.909" height="670.775"/>
        </clipPath>
        <g clip-path="url(#_clip1)">
            <path d="M609.211,377.951C613.061,371.312 617.131,364.822 621.41,358.491M693.818,388.314C663.555,431.093 645.653,484.005 645.653,541.256C645.653,683.378 755.972,798.764 891.855,798.764C1027.74,798.764 1138.06,683.378 1138.06,541.256C1138.06,399.134 1027.74,283.749 891.855,283.749C810.71,283.749 738.681,324.896 693.818,388.314M621.41,358.491C680.121,271.629 778.269,214.661 889.343,214.661C1068.9,214.661 1214.68,363.536 1214.68,546.909C1214.68,730.281 1068.9,879.156 889.343,879.156C709.783,879.156 564.004,730.281 564.004,546.909C564.004,485.237 580.493,427.467 609.211,377.951" style="fill:url(#_Linear2);"/>
        </g>
    </g>
    <g transform="matrix(1.09023,0,0,1.06818,-72.6006,-15.1213)">
        <ellipse cx="957.802" cy="507.341" rx="83.533" ry="82.905" style="fill:rgb(216,226,236);"/>
    </g>
    <g transform="matrix(1,0,0,1,-16.3298,42.7085)">
        <g transform="matrix(103.464,0,0,103.464,1056.15,513.621)">
        </g>
        <text x="918.234px" y="513.621px" style="font-family:'Arial-BoldItalicMT', 'Arial', sans-serif;font-weight:700;font-style:italic;font-size:103.464px;fill:rgb(255,189,0);">AL</text>
    </g>
    <g transform="matrix(0.726775,0,0,0.726775,247.762,198.24)">
        <g transform="matrix(196.54,0,0,196.54,1613.35,903.023)">
        </g>
        <text x="444.671px" y="903.023px" style="font-family:'Arial-BoldItalicMT', 'Arial', sans-serif;font-weight:700;font-style:italic;font-size:196.54px;fill:rgb(255,189,0);">Autoescuela</text>
    </g>
    <g transform="matrix(1,0,0,1,99.2346,1.25617)">
        <g transform="matrix(138.63,0,0,138.63,1131.2,979.647)">
        </g>
        <text x="645.653px" y="979.647px" style="font-family:'Arial-BoldItalicMT', 'Arial', sans-serif;font-weight:700;font-style:italic;font-size:138.63px;">Laravel</text>
    </g>
    <path d="M1149.27,281.897C1146.33,278.601 1146.62,273.54 1149.91,270.601C1153.21,267.663 1158.27,267.953 1161.21,271.248C1195.58,309.792 1218.17,361.653 1220.16,426.703C1220.3,431.116 1216.83,434.809 1212.41,434.944C1208,435.08 1204.31,431.607 1204.17,427.193C1202.31,366.422 1181.38,317.906 1149.27,281.897Z"/>
    <path d="M1112.74,249.34C1109.14,246.789 1108.29,241.792 1110.84,238.188C1113.39,234.585 1118.38,233.73 1121.99,236.282C1126.17,239.245 1130.27,242.345 1134.27,245.581C1137.7,248.36 1138.23,253.402 1135.45,256.833C1132.67,260.264 1127.63,260.793 1124.19,258.014C1120.47,254.996 1116.65,252.104 1112.74,249.34Z"/>
    <path d="M1110.7,247.911C1107.07,245.4 1106.16,240.413 1108.67,236.781C1111.18,233.15 1116.17,232.24 1119.8,234.752C1120.53,235.257 1121.26,235.767 1121.99,236.282C1125.59,238.833 1126.45,243.83 1123.9,247.433C1121.34,251.037 1116.35,251.891 1112.74,249.34C1112.07,248.86 1111.38,248.384 1110.7,247.911Z"/>
    <path d="M745.35,420.667C745.35,425.083 741.766,428.667 737.35,428.667C732.935,428.667 729.35,425.082 729.35,420.667C729.353,271.024 837.875,194.452 952.993,188.753C957.403,188.535 961.161,191.938 961.379,196.348C961.597,200.758 958.194,204.515 953.784,204.734C846.548,210.042 745.353,281.271 745.35,420.667Z"/>
    <path d="M1077.76,218.43C1076.09,218.43 1076.51,218.849 1076.51,217.174"/>
    <path d="M1082.76,212.181C1084.59,213.647 1085.76,215.902 1085.76,218.43C1085.76,222.845 1082.18,226.43 1077.76,226.43C1072.9,226.43 1071.46,224.695 1070.85,224.087C1070.24,223.479 1068.51,222.04 1068.51,217.174C1068.51,212.758 1072.09,209.174 1076.51,209.174C1079.03,209.174 1081.29,210.348 1082.76,212.181Z" style="fill:rgb(0,255,158);"/>
    <path d="M1031.29,192.844C1035.7,192.844 1039.29,196.429 1039.29,200.844C1039.29,205.259 1035.7,208.844 1031.29,208.844L1028.77,208.844C1024.36,208.844 1020.77,205.259 1020.77,200.844C1020.77,196.429 1024.36,192.844 1028.77,192.844L1031.29,192.844Z" style="fill:rgb(0,255,158);"/>
    <path d="M991.089,185.307C995.505,185.307 999.089,188.892 999.089,193.307C999.089,197.722 995.505,201.307 991.089,201.307L988.577,201.307C984.162,201.307 980.577,197.722 980.577,193.307C980.577,188.892 984.162,185.307 988.577,185.307L991.089,185.307Z" style="fill:rgb(0,255,158);"/>
    <path d="M995.321,193.307C995.321,197.722 991.736,201.307 987.321,201.307C982.906,201.307 979.321,197.722 979.321,193.307L979.321,192.051C979.321,187.636 982.906,184.051 987.321,184.051C991.736,184.051 995.321,187.636 995.321,192.051L995.321,193.307Z" style="fill:rgb(0,175,108);"/>
    <path d="M1025.26,190.656C1026.59,189.663 1028.24,189.076 1030.03,189.076C1033.38,189.076 1035.04,189.633 1035.63,189.881C1039.13,191.35 1040.06,193.876 1040.44,195.567C1040.99,197.943 1040.94,201.439 1037.07,204.077C1036.53,204.445 1035.54,204.996 1034.15,205.391C1032.49,205.863 1029.21,206.332 1027.52,206.332C1023.1,206.332 1019.52,202.747 1019.52,198.332C1019.52,194.701 1021.94,191.632 1025.26,190.656Z" style="fill:rgb(3,210,131);"/>
    <path d="M1038.09,279.746L1037.08,279.746" style="fill:none;stroke:black;stroke-width:1.4px;"/>
    <path d="M942.477,386.266C1092.44,193.128 1101.83,197.583 967.743,403.729C967.743,403.729 924.985,436.714 942.477,386.266Z"/>
    <g transform="matrix(0.967025,0,0,0.96542,29.9679,13.3572)">
        <path d="M943.625,386.266C1098.7,186.21 1108.42,190.825 969.753,404.354C969.753,404.354 925.537,438.521 943.625,386.266Z" style="fill:none;stroke:black;stroke-width:1.45px;"/>
    </g>
    <defs>
        <linearGradient id="_Linear2" x1="0" y1="0" x2="1" y2="0" gradientUnits="userSpaceOnUse" gradientTransform="matrix(150.736,-59.0383,59.0383,150.736,704.691,328.97)"><stop offset="0" style="stop-color:rgb(0,124,255);stop-opacity:1"/><stop offset="1" style="stop-color:rgb(0,75,153);stop-opacity:1"/></linearGradient>
    </defs>
</svg>
